# xmcd CD database file
#
# Track frame offsets:
#	150
#	13362
#	29747
#	51525
#	72162
#	92582
#	109565
#	121805
#	137510
#	152230
#	171947
#	194570
#	209945
#	226012
#	248055
#	268187
#	290285
#
# Disc length: 4063 seconds
#
# Revision: 7
# Processed by: cddbd v1.5.2PL0 Copyright (c) Steve Scherf et al.
# Submitted via: CDex 1.70beta2
#
DISCID=010fdd11
DTITLE=Various Artist - Genuine Houserockin' Music V
DYEAR=1993
DGENRE=Blues
TTITLE0=koko taylor - don't put your hands on me
TTITLE1=billy boy arnold - i wish you would
TTITLE2=elvin bishop - stealin' watermelons
TTITLE3=katie webster - i'm bad
TTITLE4=professor longhair - little charlie and the nightcats - my next ex-wife
TTITLE5=johnny heartsman - paint my mailbox blue
TTITLE6=saffire- the uppity blues women - don't treat your man like a dog
TTITLE7=clarence "gatemouth" brown - stop time
TTITLE8=tinsley ellis - highwayman
TTITLE9=william clarke - pawnshop bound
TTITLE10=lil' ed and the blues imperials - older woman
TTITLE11=bob margolin - while you're down there
TTITLE12=kenny neal - right train, wrong track
TTITLE13=maurice john vaughn - watching your watch
TTITLE14=lonnie brooks - feast or famine
TTITLE15=charlie musselwhite - hear me talkin'
TTITLE16=son seals - bad axe
EXTD=LABEL =Alligator Records and Artist Mgmt., Inc.\nID =ALCD109\nUPC =014551-0109-20\nCOPYRIGHT =1993 YEAR: 1993
EXTT0=
EXTT1=
EXTT2=
EXTT3=
EXTT4=
EXTT5=
EXTT6=
EXTT7=
EXTT8=
EXTT9=
EXTT10=
EXTT11=
EXTT12=
EXTT13=
EXTT14=
EXTT15=
EXTT16=
PLAYORDER=
